<?xml version="1.0" encoding="utf-8"?>
<!-- Generator: Adobe Illustrator 26.2.1, SVG Export Plug-In . SVG Version: 6.00 Build 0)  -->
<svg version="1.1" id="Layer_1" xmlns="http://www.w3.org/2000/svg" xmlns:xlink="http://www.w3.org/1999/xlink" x="0px" y="0px"
	 viewBox="0 0 272 272" style="enable-background:new 0 0 272 272;" xml:space="preserve">
<style type="text/css">
	.st0{fill-rule:evenodd;clip-rule:evenodd;fill:#FFFFFF;}
	.st1{fill-rule:evenodd;clip-rule:evenodd;fill:#22BAE6;}
	.st2{fill:#22BAE6;}
	.st3{fill-rule:evenodd;clip-rule:evenodd;fill:#FEFDFC;}
	.st4{fill-rule:evenodd;clip-rule:evenodd;fill:#FDFCFB;}
	.st5{fill-rule:evenodd;clip-rule:evenodd;fill:#FDFCFA;}
	.st6{fill-rule:evenodd;clip-rule:evenodd;fill:#F9F6F0;}
	.st7{fill-rule:evenodd;clip-rule:evenodd;fill:#FAF7F4;}
	.st8{fill-rule:evenodd;clip-rule:evenodd;fill:#F9F6F2;}
	.st9{fill-rule:evenodd;clip-rule:evenodd;fill:#FAF6F2;}
	.st10{fill-rule:evenodd;clip-rule:evenodd;fill:#FBF9F5;}
	.st11{fill:#152331;}
	.st12{fill:#01579B;}
	.st13{fill:#40C4FF;}
	.st14{fill:#29B6F6;}
	.st15{opacity:0.2;fill:#FFFFFF;enable-background:new    ;}
	.st16{opacity:0.2;fill:#263238;enable-background:new    ;}
</style>
<g id="OMR">
	<path id="XMLID_8_" class="st0" d="M143.6,121.2c-20.9,0-38.7,7.4-53.3,22.1c-14.7,14.6-22.1,32.4-22.1,53.3s7.4,38.7,22.1,53.2
		c5.4,5.5,11.3,10,17.5,13.5H16.4c-1.5-0.1-2.8-0.5-4.2-1.2c-2.3-1.1-3.4-3.2-3.4-6.4V69.4c0.2-1.6,0.6-3.1,1.1-4.2
		c1.2-2.3,3.4-3.4,6.6-3.4h186.1l1.2,0.2c1.1,0.2,2,0.5,2.9,0.8c2.4,1.1,3.6,3.2,3.6,6.6v91.5c-3.5-6.3-7.9-12.2-13.5-17.7
		C181.9,128.6,164.2,121.2,143.6,121.2z"/>
	<path id="XMLID_2_" class="st1" d="M143.6,121.2c20.6,0,38.4,7.4,53.1,22.1c5.5,5.4,10,11.4,13.4,17.7V69.4c0-3.3-1.2-5.5-3.6-6.6
		c-0.8-0.3-1.8-0.6-2.9-0.8l-1.2-0.2h-186c-3.2,0-5.4,1.1-6.6,3.4c-0.6,1.2-0.9,2.6-1.1,4.2v186c0,3.2,1.1,5.4,3.4,6.4
		c1.4,0.7,2.8,1.1,4.2,1.2h91.5c-6.3-3.5-12.2-7.9-17.5-13.5c-14.7-14.5-22.1-32.3-22.1-53.2s7.4-38.7,22.1-53.3
		C104.9,128.6,122.7,121.2,143.6,121.2z M207.3,53.2c2,0.4,3.6,0.9,4.6,1.5c4.5,2.2,6.8,6.2,6.8,11.9v129.9
		c0,20.8-7.4,38.5-22.2,53.2C181.8,264.5,164,272,143.4,272H13.6c-2.2,0-4.5-0.6-6.8-1.6C2.3,268,0,264,0,258.3V66.6
		c0-2.3,0.6-4.5,1.8-6.8C4,55.3,7.9,53,13.7,53h191.5L207.3,53.2z"/>
	<g>
		<path class="st2" d="M91.4,121.8h-5.1v-14.9c0-1.9-0.3-3.2-1.1-4.1s-1.8-1.4-3.2-1.4c-1.9,0-3.4,0.6-4.4,1.9
			c-0.9,1.3-1.4,3.4-1.4,6.4v12H71v-24h4.1l0.7,3.2H76c0.6-1.1,1.6-2,2.9-2.7c1.3-0.6,2.7-1,4.2-1c3.7,0,6.2,1.3,7.4,3.8h0.3
			c0.7-1.2,1.7-2.1,3-2.8c1.3-0.6,2.8-1,4.5-1c2.8,0,4.9,0.7,6.3,2.2c1.3,1.5,1.9,3.6,1.9,6.6v15.7h-5.1v-15c0-1.9-0.3-3.2-1.1-4.1
			c-0.7-0.9-1.8-1.4-3.2-1.4c-1.9,0-3.4,0.6-4.4,1.9c-0.9,1.2-1.4,3.2-1.4,5.8C91.4,109,91.4,121.8,91.4,121.8z"/>
		<path class="st2" d="M122.6,97.3c1.1,0,1.9,0.1,2.5,0.2l-0.5,4.8c-0.7-0.2-1.5-0.2-2.3-0.2c-2,0-3.7,0.6-4.9,2
			c-1.3,1.4-1.9,3.1-1.9,5.2v12.6h-5.1V97.8h4l0.6,4.2h0.2c0.8-1.5,1.9-2.6,3.2-3.4C119.7,97.7,121.1,97.3,122.6,97.3z"/>
	</g>
	<g>
		<path class="st2" d="M67.1,104.5c0,7.7-1.9,13.7-5.8,18s-9.3,6.4-16.4,6.4s-12.6-2.1-16.5-6.4s-5.8-10.3-5.8-18.2
			s1.9-13.9,5.8-18.1s9.4-6.3,16.5-6.3s12.5,2.1,16.4,6.4C65.3,90.8,67.1,96.8,67.1,104.5z M30.9,104.5c0,5.8,1.2,10.3,3.6,13.3
			s5.8,4.5,10.5,4.5s8.1-1.5,10.5-4.5s3.5-7.5,3.5-13.4c0-5.8-1.1-10.2-3.5-13.2s-5.8-4.5-10.4-4.5s-8.2,1.5-10.5,4.5
			S30.9,98.6,30.9,104.5z"/>
	</g>
	<g>
		<path class="st3" d="M154.1,190.5c-11.8,5.8-24.9,3.8-33.3-5c-13.5-14.2-8.6-37.1,8.8-44.6c14.9-6.4,32.4,0.9,37.5,17.1
			c2.2,7,1.6,13.9-1.7,20.5c-0.6,1.1-0.6,1.8,0.4,2.7c4.7,4.3,9.2,8.6,13.8,13.1c3.1,3,3.2,7.6,0.4,10.7c-2.8,3-7.3,3.4-10.5,0.5
			c-4.9-4.3-9.6-8.8-14.4-13.4C154.5,191.7,154.3,191,154.1,190.5z M159.5,167c0.7-10.2-8.7-19.8-19.8-19.4c-9.6,0.3-18,8.6-18.5,18
			c-0.6,12.2,9.5,20,18.2,20.4C150.8,186.6,160.1,176.8,159.5,167z"/>
		<path class="st4" d="M144.6,228.7c-3.6,0-5.8-2.4-5.8-6.1c0-3.6,2.4-5.8,6.4-5.7c3.1,0,5.3,2.6,5.5,5.8
			C150.9,225.7,147.9,229.3,144.6,228.7z"/>
		<path class="st4" d="M129,232.8c3.4,0,5.9,2.4,5.9,5.6c0,3.6-2.4,6.2-6.1,6.2c-3.5,0-5.8-2.4-5.8-5.8
			C123.1,235,125.4,232.8,129,232.8z"/>
		<path class="st5" d="M107.3,207.1c0-3.7,2.2-5.7,5.9-6c3.1-0.2,6.1,3,5.9,5.9c-0.1,3.4-2.5,5.9-5.8,5.9
			C109.5,213,107.3,210.7,107.3,207.1z"/>
		<path class="st6" d="M144.6,244.5c-3.6,0-5.9-2.4-5.9-6c0.1-3.6,2.4-5.8,6.1-5.8c3.4,0,5.8,2.5,5.8,6.2
			C150.6,242.2,148.1,244.6,144.6,244.5z M141.4,238.7c0,1.9,1.4,3.4,3.2,3.5s3.5-1.6,3.5-3.5c0-1.8-1.5-3.4-3.3-3.5
			C142.9,235.1,141.4,236.6,141.4,238.7z"/>
		<path class="st7" d="M128.8,228.7c-3.4,0-5.8-2.4-5.9-5.8c-0.1-3.6,2.4-5.9,6-5.9c3.3,0,5.9,2.4,5.9,5.6
			C134.9,226.3,132.5,228.7,128.8,228.7z M128.9,219.4c-1.8-0.1-3.3,1.5-3.3,3.3c-0.1,2,1.4,3.6,3.2,3.6c1.8,0,3.4-1.5,3.5-3.3
			S130.8,219.4,128.9,219.4z"/>
		<path class="st7" d="M176.2,228.7c-3.5,0-5.8-2.4-5.8-5.9c0-3.4,2.4-5.8,5.6-5.8c3.9,0,6.2,2.4,6.3,5.9
			C182.4,225.7,179.5,229.4,176.2,228.7z M176.4,219.4c-1.8-0.1-3.3,1.5-3.3,3.3c-0.1,2.1,1.3,3.6,3.2,3.6c1.8,0,3.4-1.5,3.5-3.3
			C179.8,221.2,178.2,219.4,176.4,219.4z"/>
		<path class="st8" d="M113,244.5c-3.5,0-5.8-2.4-5.8-5.8c0-3.6,2.4-5.9,6-5.9c3.4,0,5.8,2.5,5.9,5.9
			C119.2,241.6,116.4,245,113,244.5z M113,235.2c-1.9,0-3.3,1.6-3.3,3.6c0.1,1.9,1.6,3.3,3.4,3.3s3.5-1.8,3.4-3.6
			S114.8,235.2,113,235.2z"/>
		<path class="st9" d="M160.4,244.6c-3.5,0-5.8-2.4-5.8-5.9c0-3.6,2.4-5.9,6-5.9c3.5,0,5.9,2.5,5.9,6.1
			C166.5,242,163.4,245.1,160.4,244.6z M163.9,238.6c0-1.9-1.8-3.5-3.6-3.4s-3.2,1.6-3.2,3.6c0,1.9,1.5,3.4,3.3,3.4
			C162.3,242.2,163.9,240.5,163.9,238.6z"/>
		<path class="st7" d="M160.5,228.8c-3.6,0-5.8-2.4-6-5.9c-0.1-3.2,2.5-6.1,6.2-5.9c3.2,0.2,5.7,2.6,5.7,5.8
			C166.5,226.3,164,228.7,160.5,228.8z M157.1,222.9c0,1.9,1.5,3.4,3.2,3.4c1.9,0,3.5-1.5,3.5-3.5c0-1.9-1.7-3.5-3.6-3.5
			C158.6,219.5,157.1,221,157.1,222.9z"/>
		<path class="st7" d="M113.1,216.9c3.5,0,5.8,2.4,6,5.8c0.2,2.8-2.8,6.4-6.2,6.1c-3.3-0.3-5.7-2.5-5.8-5.8
			C107.1,219.3,109.5,216.9,113.1,216.9z M109.7,222.8c0,2,1.5,3.6,3.4,3.5c1.8,0,3.3-1.6,3.3-3.4c0-1.9-1.6-3.6-3.5-3.5
			C111.2,219.4,109.8,220.9,109.7,222.8z"/>
		<path class="st10" d="M128.8,213c-3.5,0-5.8-2.4-5.8-5.9c0-3.4,2.4-5.8,5.6-5.9c3.9,0,6.3,2.3,6.3,5.8
			C134.9,210.5,132.4,213,128.8,213z M125.6,207.1c0,1.9,1.5,3.5,3.2,3.5c1.7,0,3.6-1.7,3.5-3.6c-0.1-1.8-1.7-3.4-3.4-3.5
			C127.1,203.5,125.5,205.1,125.6,207.1z"/>
		<path class="st10" d="M144.6,213c-3.5,0-5.8-2.4-5.8-5.9c0-3.7,2.4-5.9,6.2-5.9c3.2,0,5.7,2.5,5.7,5.9
			C150.6,210.6,148.2,213,144.6,213z M141.4,207.1c0,1.9,1.5,3.5,3.2,3.5c1.8,0.1,3.6-1.8,3.5-3.6s-1.6-3.4-3.3-3.5
			C142.9,203.5,141.4,205,141.4,207.1z"/>
	</g>
</g>
<g>
	<path class="st11" d="M271.6,64.8c0,35.2-28.6,63.8-63.8,63.8S144,100,144,64.8S172.6,1,207.8,1S271.6,29.6,271.6,64.8"/>
</g>
<path class="st12" d="M181,86.6l-14.3-14.3c-1.7-1.7-2.8-4.2-2.8-6.6c0-1.1,0.6-2.8,1.1-3.9l13.2-27.5L181,86.6z"/>
<path class="st13" d="M230,37.1l-14.3-14.3c-1.2-1.3-3.9-2.8-6-2.8c-1.9,0-3.7,0.4-4.9,1.1l-26.4,13.2L230,37.1z M198.1,103.6h34.6
	V88.8l-25.8-8.3l-23.7,8.3L198.1,103.6z"/>
<path class="st14" d="M178.3,78.9c0,4.4,0.6,5.5,2.8,7.7l2.2,2.2h49.5l-24.2-27.5l-30.2-26.9v44.5H178.3z"/>
<path class="st12" d="M222.3,34.3h-44l54.4,54.4h14.8v-34l-17.6-17.6C227.5,34.6,225.3,34.3,222.3,34.3z"/>
<path class="st15" d="M181.6,87.1c-2.2-2.2-2.8-4.4-2.8-8.2v-44l-0.6-0.6v44.5C178.3,82.7,178.3,83.8,181.6,87.1l1.7,1.7L181.6,87.1
	L181.6,87.1z"/>
<path class="st16" d="M247,54.1v34.1h-14.8l0.5,0.6h14.9V54.7L247,54.1z"/>
<path class="st15" d="M230,37.1c-2.7-2.7-5-2.8-8.2-2.8h-43.4l0.6,0.6h42.9C223.4,34.9,227.5,34.6,230,37.1z"/>
</svg>
