<?xml version="1.0" encoding="utf-8"?>
<!-- Generator: Adobe Illustrator 26.2.1, SVG Export Plug-In . SVG Version: 6.00 Build 0)  -->
<svg version="1.1" id="Layer_1" xmlns="http://www.w3.org/2000/svg" xmlns:xlink="http://www.w3.org/1999/xlink" x="0px" y="0px"
	 viewBox="0 0 320 320" style="enable-background:new 0 0 320 320;" xml:space="preserve">
<style type="text/css">
	.st0{fill:none;stroke:#EFEFEF;stroke-linecap:round;stroke-linejoin:round;stroke-miterlimit:10;stroke-dasharray:4,8;}
	.st1{fill-rule:evenodd;clip-rule:evenodd;fill:#FFFFFF;}
	.st2{fill-rule:evenodd;clip-rule:evenodd;fill:#22BAE6;}
	.st3{fill:#22BAE6;}
	.st4{fill-rule:evenodd;clip-rule:evenodd;fill:#FEFDFC;}
	.st5{fill-rule:evenodd;clip-rule:evenodd;fill:#FDFCFB;}
	.st6{fill-rule:evenodd;clip-rule:evenodd;fill:#FDFCFA;}
	.st7{fill-rule:evenodd;clip-rule:evenodd;fill:#F9F6F0;}
	.st8{fill-rule:evenodd;clip-rule:evenodd;fill:#FAF7F4;}
	.st9{fill-rule:evenodd;clip-rule:evenodd;fill:#F9F6F2;}
	.st10{fill-rule:evenodd;clip-rule:evenodd;fill:#FAF6F2;}
	.st11{fill-rule:evenodd;clip-rule:evenodd;fill:#FBF9F5;}
	.st12{fill:#3A3C5B;}
	.st13{fill:#DEDFDF;}
	.st14{fill:#2F7ABC;}
	.st15{fill:#EFEFEF;}
	.st16{fill:#01579B;}
	.st17{fill:#40C4FF;}
	.st18{fill:#29B6F6;}
	.st19{opacity:0.2;fill:#FFFFFF;enable-background:new    ;}
	.st20{opacity:0.2;fill:#263238;enable-background:new    ;}
	.st21{opacity:0.2;fill:url(#SVGID_1_);enable-background:new    ;}
</style>
<circle class="st0" cx="154.2" cy="163.2" r="123.7"/>
<g id="OMR">
	<path id="XMLID_8_" class="st1" d="M227.8,153.8c-19.6,0-36.3,6.9-50,20.7c-13.8,13.7-20.7,30.4-20.7,50s6.9,36.3,20.7,49.9
		c5.1,5.2,10.6,9.4,16.4,12.6h-85.8c-1.4-0.1-2.7-0.5-4-1.1c-2.1-1.1-3.2-3-3.2-6V105.1c0.2-1.5,0.5-2.9,1.1-4
		c1.1-2.1,3.2-3.2,6.2-3.2h174.6l1.1,0.2c1.1,0.2,1.9,0.5,2.7,0.8c2.2,1.1,3.3,3,3.3,6.2V191c-3.3-5.9-7.5-11.5-12.6-16.6
		C263.7,160.7,247.1,153.8,227.8,153.8z"/>
	<path id="XMLID_2_" class="st2" d="M227.8,153.8c19.3,0,36,6.9,49.8,20.7c5.2,5.1,9.4,10.7,12.6,16.6v-85.9c0-3.1-1.1-5.2-3.3-6.2
		c-0.8-0.3-1.7-0.6-2.7-0.8l-1.1-0.2H108.4c-3,0-5,1.1-6.2,3.2c-0.5,1.1-0.8,2.4-1.1,4v174.6c0,3,1.1,5,3.2,6c1.3,0.7,2.6,1.1,4,1.1
		h85.8c-5.9-3.3-11.4-7.5-16.4-12.6C163.9,260.7,157,244,157,224.4s6.9-36.3,20.7-50C191.5,160.7,208.1,153.8,227.8,153.8z
		 M287.6,90c1.9,0.4,3.3,0.8,4.3,1.4c4.3,2.1,6.4,5.8,6.4,11.2v121.9c0,19.6-6.9,36.1-20.8,49.9c-13.8,13.8-30.5,20.8-49.8,20.8
		H105.8c-2.1,0-4.2-0.5-6.4-1.5c-4.3-2.2-6.4-6-6.4-11.3V102.6c0-2.1,0.5-4.3,1.7-6.4c2.1-4.3,5.8-6.4,11.2-6.4h179.7L287.6,90z"/>
	<g>
		<path class="st3" d="M178.8,154.4H174v-14c0-1.8-0.3-3-1-3.9s-1.7-1.3-3-1.3c-1.8,0-3.2,0.6-4.1,1.8c-0.8,1.2-1.3,3.2-1.3,6v11.3
			h-4.9v-22.5h3.8l0.7,3h0.2c0.6-1.1,1.5-1.9,2.7-2.5s2.5-0.9,4-0.9c3.5,0,5.8,1.2,6.9,3.6h0.3c0.7-1.1,1.6-2,2.8-2.6
			s2.6-0.9,4.2-0.9c2.7,0,4.6,0.7,5.9,2.1c1.2,1.4,1.8,3.4,1.8,6.2v14.8h-4.8v-14.1c0-1.8-0.3-3-1-3.9s-1.7-1.3-3-1.3
			c-1.8,0-3.2,0.6-4.1,1.8c-0.8,1.1-1.3,3-1.3,5.4C178.8,142.4,178.8,154.4,178.8,154.4z"/>
		<path class="st3" d="M208.1,131.3c1,0,1.8,0.1,2.4,0.2L210,136c-0.7-0.2-1.4-0.2-2.1-0.2c-1.9,0-3.5,0.6-4.6,1.9
			c-1.2,1.3-1.8,2.9-1.8,4.9v11.8h-4.8v-22.6h3.7l0.6,4h0.2c0.8-1.4,1.8-2.4,3-3.2C205.3,131.7,206.7,131.3,208.1,131.3z"/>
	</g>
	<g>
		<path class="st3" d="M156,138.1c0,7.2-1.8,12.9-5.5,16.9s-8.8,6-15.4,6c-6.7,0-11.9-2-15.5-6c-3.7-4-5.4-9.7-5.4-17
			c0-7.4,1.8-13,5.5-17s8.8-5.9,15.5-5.9c6.6,0,11.7,2,15.4,6C154.3,125.2,156,130.9,156,138.1z M122,138.1c0,5.5,1.1,9.7,3.3,12.5
			c2.2,2.8,5.5,4.3,9.8,4.3s7.6-1.4,9.8-4.2s3.3-7,3.3-12.6c0-5.5-1.1-9.6-3.3-12.4c-2.2-2.8-5.5-4.3-9.7-4.3
			c-4.3,0-7.7,1.4-9.9,4.3C123.1,128.5,122,132.6,122,138.1z"/>
	</g>
	<g>
		<path class="st4" d="M237.6,218.8c-11.1,5.4-23.4,3.6-31.3-4.7c-12.6-13.3-8.1-34.9,8.3-41.9c14-6,30.4,0.8,35.2,16.1
			c2.1,6.5,1.5,13-1.6,19.3c-0.5,1.1-0.6,1.7,0.4,2.5c4.4,4,8.7,8.1,12.9,12.3c2.9,2.8,3,7.2,0.4,10s-6.8,3.2-9.9,0.5
			c-4.6-4-9.1-8.3-13.5-12.6C238,220,237.8,219.3,237.6,218.8z M242.7,196.8c0.7-9.6-8.1-18.6-18.6-18.2c-9,0.3-16.9,8.1-17.3,16.9
			c-0.6,11.5,8.9,18.8,17,19.2C234.5,215.2,243.3,206,242.7,196.8z"/>
		<path class="st5" d="M228.8,254.7c-3.3,0-5.5-2.2-5.4-5.7c0-3.3,2.3-5.4,6-5.3c2.9,0,4.9,2.4,5.2,5.5
			C234.6,251.9,231.8,255.2,228.8,254.7z"/>
		<path class="st5" d="M214.1,258.5c3.2,0,5.6,2.3,5.6,5.3c0,3.4-2.3,5.8-5.7,5.8c-3.3,0-5.4-2.2-5.4-5.5
			C208.5,260.6,210.6,258.5,214.1,258.5z"/>
		<path class="st6" d="M193.7,234.4c0-3.5,2.1-5.3,5.6-5.6c2.9-0.2,5.7,2.8,5.6,5.6c-0.1,3.2-2.4,5.6-5.5,5.6
			C195.8,239.9,193.7,237.8,193.7,234.4z"/>
		<path class="st7" d="M228.8,269.5c-3.3,0-5.6-2.3-5.6-5.6c0.1-3.3,2.3-5.5,5.7-5.5c3.2,0,5.5,2.4,5.5,5.8
			C234.4,267.4,232,269.6,228.8,269.5z M225.7,264c0,1.8,1.3,3.2,3,3.3c1.7,0.1,3.3-1.5,3.3-3.3c0-1.7-1.4-3.2-3.1-3.3
			C227.1,260.7,225.7,262.1,225.7,264z"/>
		<path class="st8" d="M213.9,254.7c-3.2,0-5.5-2.3-5.6-5.5c-0.1-3.3,2.2-5.6,5.6-5.6c3.1,0,5.6,2.3,5.6,5.3
			C219.6,252.4,217.3,254.7,213.9,254.7z M214,245.9c-1.7-0.1-3.1,1.4-3.1,3.1c-0.1,1.9,1.3,3.4,3,3.4s3.2-1.4,3.3-3.1
			C217.3,247.6,215.7,245.9,214,245.9z"/>
		<path class="st8" d="M258.4,254.7c-3.3,0-5.5-2.3-5.5-5.6c0-3.2,2.2-5.5,5.3-5.5c3.7,0,5.9,2.2,5.9,5.6
			C264.2,251.9,261.5,255.3,258.4,254.7z M258.5,245.9c-1.7-0.1-3.1,1.4-3.1,3.1c-0.1,2,1.2,3.3,3,3.4c1.7,0,3.2-1.4,3.3-3.1
			C261.8,247.6,260.3,245.9,258.5,245.9z"/>
		<path class="st9" d="M199.1,269.5c-3.3,0-5.5-2.3-5.5-5.5c0-3.3,2.2-5.6,5.6-5.6c3.2,0,5.5,2.4,5.6,5.6
			C204.9,266.8,202.3,270,199.1,269.5z M199.1,260.8c-1.8,0-3.1,1.5-3.1,3.4c0.1,1.8,1.5,3.1,3.2,3.1s3.3-1.7,3.2-3.4
			C202.3,262.2,200.7,260.8,199.1,260.8z"/>
		<path class="st10" d="M243.5,269.6c-3.3,0-5.5-2.3-5.5-5.6c0-3.4,2.2-5.6,5.6-5.6c3.3,0,5.6,2.4,5.6,5.7
			C249.3,267.1,246.3,270,243.5,269.6z M246.9,263.9c0-1.8-1.7-3.3-3.4-3.2c-1.7,0.1-3,1.5-3,3.3s1.4,3.2,3.1,3.2
			C245.3,267.3,246.9,265.7,246.9,263.9z"/>
		<path class="st8" d="M243.7,254.7c-3.3,0-5.5-2.2-5.6-5.6c-0.1-3,2.4-5.7,5.9-5.6c3,0.2,5.3,2.4,5.3,5.5
			C249.3,252.4,246.9,254.7,243.7,254.7z M240.5,249.2c0,1.8,1.4,3.2,3,3.2c1.8,0,3.3-1.4,3.3-3.3c0-1.8-1.6-3.3-3.3-3.3
			C241.8,246,240.5,247.4,240.5,249.2z"/>
		<path class="st8" d="M199.2,243.6c3.3,0,5.5,2.3,5.6,5.5c0.2,2.7-2.6,6-5.9,5.7c-3.1-0.3-5.3-2.4-5.4-5.5
			C193.5,245.8,195.7,243.6,199.2,243.6z M196,249.1c0,1.9,1.4,3.3,3.2,3.3c1.7,0,3.1-1.5,3.1-3.2c0-1.8-1.5-3.3-3.3-3.3
			C197.4,245.9,196,247.4,196,249.1z"/>
		<path class="st11" d="M213.8,239.9c-3.3,0-5.5-2.3-5.5-5.6c0-3.2,2.2-5.5,5.3-5.6c3.7,0,5.9,2.1,5.9,5.5
			C219.6,237.5,217.3,239.9,213.8,239.9z M210.9,234.3c0,1.8,1.4,3.3,3,3.3c1.7,0,3.3-1.6,3.3-3.3c-0.1-1.7-1.6-3.2-3.2-3.3
			C212.2,231,210.8,232.5,210.9,234.3z"/>
		<path class="st11" d="M228.7,239.9c-3.3,0-5.5-2.3-5.5-5.6c0-3.5,2.2-5.6,5.9-5.6c3,0,5.3,2.4,5.3,5.6
			C234.4,237.7,232.1,239.9,228.7,239.9z M225.7,234.3c0,1.8,1.4,3.3,3,3.3c1.7,0.1,3.3-1.7,3.3-3.3s-1.5-3.2-3.1-3.3
			C227.1,231,225.7,232.4,225.7,234.3z"/>
	</g>
</g>
<g>
	<path class="st12" d="M274.8,142c-19,0-34.5-15.5-34.5-34.5S255.8,73,274.8,73s34.5,15.5,34.5,34.5S293.9,142,274.8,142z"/>
	<path class="st13" d="M274.8,74.4c18.2,0,33,14.8,33,33s-14.8,33-33,33s-33-14.8-33-33S256.6,74.4,274.8,74.4 M274.8,71.4
		c-19.9,0-36,16.1-36,36s16.1,36,36,36s36-16.1,36-36S294.7,71.4,274.8,71.4L274.8,71.4z"/>
</g>
<g>
	<g>
		<polygon class="st14" points="212.9,47.1 231.2,48.2 229.8,65.2 222.6,70.2 215.4,66.7 		"/>
		<polygon class="st14" points="159.3,50.4 163.4,50.4 164.8,47.1 165.4,27.7 158.8,23.9 146.3,23.9 145.3,38.1 145.8,50 		"/>
		<polygon class="st14" points="89,54.9 82.1,48.7 70.4,49.1 69.9,74.9 70.7,75.8 89,75.8 		"/>
		<polygon class="st14" points="46.5,116.5 40.3,110.3 28.1,110.3 28.1,137.2 46.5,137.6 		"/>
		<polygon class="st14" points="51,191.1 44.9,185.6 28.7,185.3 27.2,187.1 27.2,208.7 50.5,209.1 		"/>
		<polygon class="st14" points="78.8,247.1 72.8,241.1 58.4,240.7 59,268 77.7,268 		"/>
	</g>
	<g>
		<g>
			<path class="st15" d="M210.8,45.1h22.5l-2.1,23.2l-9.2,3.1l-9.2-3.1L210.8,45.1z M228.8,52.6l0.3-2.8H215l0.7,8.5h9.8l-0.4,3.6
				l-3.1,0.8l-3.2-0.8l-0.2-2.2h-2.8l0.4,4.4l5.8,1.6h0.1l5.7-1.6l0.8-8.7h-10.3l-0.2-2.9L228.8,52.6L228.8,52.6z"/>
		</g>
		<g>
			<path class="st15" d="M165.4,27.7c0.6,0.5,0.8,1.2,0.8,2v19.5c0,0.8-0.3,1.4-0.8,2c-0.6,0.5-1.2,0.8-2,0.8h-16.9
				c-0.8,0-1.4-0.3-2-0.8s-0.8-1.2-0.8-2V24.8c0-0.8,0.3-1.4,0.8-2s1.2-0.8,2-0.8h11.9c0.8,0,1.4,0.3,2,0.8L165.4,27.7z M146.6,49.1
				h16.9V32.2h-6.1c-0.4,0-0.7-0.1-1-0.4c-0.3-0.3-0.4-0.6-0.4-1v-6.1h-9.4V49.1L146.6,49.1z M149.3,33.1c0.6-0.5,1.2-0.8,2-0.8
				s1.4,0.3,2,0.8s0.8,1.2,0.8,2s-0.3,1.5-0.8,2c-0.6,0.5-1.2,0.8-2,0.8s-1.4-0.3-2-0.8s-0.8-1.2-0.8-2S148.7,33.6,149.3,33.1z
				 M148.4,46.3v-3.8l2.3-2.3c0.3-0.3,0.6-0.3,0.9,0l2.3,2.3l5.2-5.2c0.3-0.3,0.6-0.3,0.9,0l1.4,1.4v7.5L148.4,46.3L148.4,46.3z
				 M163.2,29.4l-4.4-4.4v4.5C158.8,29.4,163.2,29.4,163.2,29.4z"/>
		</g>
		<g>
			<path class="st15" d="M90,53.4c0.6,0.5,0.8,1.2,0.8,2v19.5c0,0.8-0.3,1.4-0.8,2c-0.6,0.6-1.2,0.8-2,0.8H71.1
				c-0.8,0-1.4-0.3-2-0.8c-0.6-0.6-0.8-1.2-0.8-2V50.5c0-0.8,0.3-1.4,0.8-2c0.6-0.5,1.2-0.8,2-0.8H83c0.8,0,1.4,0.3,2,0.8L90,53.4z
				 M71.1,74.8H88V58h-6.1c-0.4,0-0.7-0.1-1-0.4c-0.3-0.3-0.4-0.6-0.4-1v-6.1h-9.4V74.8z M83.5,60.8c0.3,0,0.5,0.1,0.6,0.3
				s0.1,0.5,0,0.7c-1.4,2.4-2.3,3.9-2.7,4.6l2.7,4.6c0.2,0.2,0.2,0.5,0,0.7C84,71.9,83.8,72,83.5,72h-1.7c-0.3,0-0.5-0.1-0.6-0.3
				c-0.1-0.1-0.6-1.2-1.7-3.4c-0.5,1.1-1,2.2-1.7,3.4c-0.1,0.2-0.3,0.3-0.6,0.3h-1.7c-0.3,0-0.5-0.1-0.6-0.3c-0.1-0.2-0.1-0.5,0-0.7
				l2.7-4.6L75,61.8c-0.2-0.2-0.2-0.5,0-0.7s0.3-0.3,0.6-0.3h1.7c0.3,0,0.5,0.1,0.6,0.3c0.3,0.7,0.9,1.8,1.6,3.4
				c0.3-0.9,0.9-2,1.7-3.4c0.1-0.2,0.3-0.3,0.6-0.3C81.8,60.8,83.5,60.8,83.5,60.8z M87.7,55.2l-4.4-4.5v4.5H87.7z"/>
		</g>
		<g>
			<path class="st15" d="M47.5,115c0.5,0.6,0.8,1.2,0.8,2v19.4c0,0.8-0.3,1.4-0.8,2s-1.2,0.8-2,0.8H28.6c-0.8,0-1.5-0.3-2-0.8
				c-0.5-0.6-0.8-1.2-0.8-2V112c0-0.8,0.3-1.4,0.8-2s1.2-0.8,2-0.8h12c0.8,0,1.4,0.3,2,0.8L47.5,115z M28.6,136.5h16.9v-16.9h-6.1
				c-0.4,0-0.7-0.1-1-0.4s-0.4-0.6-0.4-1v-6.1h-9.4V136.5z M41.5,124.3h0.9c0.2,0,0.4,0.1,0.6,0.3c0.1,0.2,0.2,0.4,0.2,0.6
				c-0.4,1.5-1.1,4.1-2,8c-0.1,0.4-0.3,0.5-0.7,0.5H39c-0.4,0-0.6-0.2-0.7-0.5c-0.3-1.1-0.6-2.5-1-4.2l-0.2-1c0,0.3-0.1,0.6-0.2,1
				l-1,4.2c-0.1,0.4-0.3,0.5-0.6,0.5h-1.5c-0.4,0-0.6-0.2-0.7-0.5c-0.1-0.5-0.4-1.8-0.9-3.8c-0.5-2.1-0.8-3.5-1-4.1
				c-0.1-0.2,0-0.4,0.1-0.6c0.2-0.2,0.3-0.3,0.5-0.3h1c0.4,0,0.6,0.2,0.7,0.6c0.7,3.7,1.1,5.7,1.1,5.8c0,0,0,0.1,0.1,0.2
				c0-0.2,0.5-2.3,1.4-6.1c0.1-0.3,0.3-0.5,0.7-0.5h0.8c0.4,0,0.6,0.2,0.7,0.5c0.9,3.8,1.4,5.7,1.4,5.9c0,0,0,0.1,0,0.2
				c0-0.2,0.5-2.2,1.2-6C40.9,124.5,41.1,124.3,41.5,124.3z M45.3,116.8l-4.5-4.4v4.4H45.3z"/>
		</g>
		<g>
			<path class="st15" d="M51.2,190.1c0.5,0.6,0.8,1.2,0.8,2v15.7c0,0.8-0.3,1.4-0.8,2s-1.2,0.8-2,0.8H28.6c-0.8,0-1.5-0.3-2-0.8
				c-0.5-0.6-0.8-1.2-0.8-2v-20.6c0-0.8,0.3-1.4,0.8-2s1.2-0.8,2-0.8h15.7c0.8,0,1.4,0.3,2,0.8L51.2,190.1z M48.9,207.8
				c0.2,0,0.3-0.1,0.3-0.4v-15.2c0-0.1,0-0.2-0.1-0.2l-4.6-4.6v5.9c0,0.4-0.1,0.7-0.4,1c-0.3,0.3-0.6,0.4-1,0.4H32.8
				c-0.4,0-0.7-0.1-1-0.4c-0.3-0.3-0.4-0.6-0.4-1v-6.1H29c-0.2,0-0.4,0.1-0.4,0.4v19.9c0,0.2,0.1,0.4,0.4,0.4L48.9,207.8L48.9,207.8
				z M35.3,197.6c1-1,2.2-1.5,3.6-1.5s2.6,0.5,3.6,1.5s1.5,2.2,1.5,3.6s-0.5,2.6-1.5,3.6s-2.2,1.5-3.6,1.5s-2.6-0.5-3.6-1.5
				s-1.5-2.2-1.5-3.6S34.3,198.6,35.3,197.6z M41.8,187.1h-7.5v4.7h7.5V187.1z M37.3,202.9c0.5,0.4,1,0.7,1.7,0.7s1.2-0.2,1.7-0.7
				c0.5-0.4,0.7-1,0.7-1.7s-0.2-1.2-0.7-1.7c-0.5-0.4-1-0.7-1.7-0.7s-1.2,0.2-1.7,0.7c-0.5,0.4-0.7,1-0.7,1.7S36.8,202.4,37.3,202.9
				z"/>
		</g>
		<g>
			<path class="st15" d="M79.3,245.6c0.6,0.6,0.8,1.2,0.8,2V267c0,0.8-0.3,1.4-0.8,2s-1.2,0.8-2,0.8H60.4c-0.8,0-1.5-0.3-2-0.8
				s-0.8-1.2-0.8-2v-24.4c0-0.8,0.3-1.4,0.8-2s1.2-0.8,2-0.8h12c0.8,0,1.4,0.3,2,0.8L79.3,245.6z M77.3,267v-16.9h-6.1
				c-0.4,0-0.7-0.1-1-0.4c-0.3-0.3-0.4-0.6-0.4-1v-6.1h-9.4V267H77.3z M66.4,260.3c0.2,0.2,0.2,0.5,0,0.8l-1,1
				c-0.1,0.1-0.2,0.2-0.4,0.2c-0.1,0-0.2-0.1-0.3-0.2l-3.3-3.2c-0.3-0.2-0.3-0.5,0-0.7l3.3-3.2c0.3-0.3,0.5-0.3,0.8,0l1,1v0.1
				c0.2,0.2,0.2,0.5,0,0.7l-1.9,1.7L66.4,260.3z M69.9,252.4l1.4,0.4c0.3,0.1,0.5,0.3,0.3,0.6l-3.2,11c-0.1,0.4-0.3,0.5-0.6,0.4
				l-1.4-0.4c-0.3-0.1-0.5-0.3-0.3-0.6l3.2-11C69.4,252.4,69.6,252.3,69.9,252.4z M71.3,256.9c-0.2-0.2-0.2-0.5,0-0.8l1-1.1
				c0.2-0.3,0.5-0.3,0.8,0l3.3,3.2c0.3,0.2,0.3,0.5,0,0.7l-3.3,3.2c-0.3,0.3-0.5,0.3-0.8,0l-1-1V261c-0.2-0.2-0.2-0.5,0-0.7l1.9-1.7
				L71.3,256.9z M72.6,242.9v4.4H77L72.6,242.9z"/>
		</g>
	</g>
</g>
<path class="st16" d="M260.2,120l-7.7-7.7c-0.9-0.9-1.5-2.3-1.5-3.5c0-0.6,0.3-1.5,0.6-2.1l7.1-14.7L260.2,120z"/>
<path class="st17" d="M286.5,93.5l-7.7-7.7c-0.6-0.7-2.1-1.5-3.2-1.5c-1,0-2,0.2-2.6,0.6L258.8,92L286.5,93.5z M269.4,129.1h18.5
	v-7.9l-13.8-4.4l-12.7,4.4L269.4,129.1z"/>
<path class="st18" d="M258.8,115.9c0,2.4,0.3,2.9,1.5,4.1l1.2,1.2H288l-13-14.7L258.8,92L258.8,115.9L258.8,115.9z"/>
<path class="st16" d="M282.3,92h-23.6l29.1,29.1h7.9v-18.2l-9.4-9.4C285.1,92.1,283.9,92,282.3,92z"/>
<path class="st19" d="M260.5,120.3c-1.2-1.2-1.5-2.4-1.5-4.4V92.3l-0.3-0.3v23.8C258.8,117.9,258.8,118.5,260.5,120.3l0.9,0.9
	L260.5,120.3L260.5,120.3z"/>
<path class="st20" d="M295.6,102.6v18.3h-7.9l0.3,0.3h8v-18.3L295.6,102.6z"/>
<path class="st19" d="M286.5,93.5c-1.4-1.4-2.7-1.5-4.4-1.5h-23.3l0.3,0.3h23C282.9,92.3,285.1,92.1,286.5,93.5z"/>
<radialGradient id="SVGID_1_" cx="273.4858" cy="1057.2345" r="22.4125" gradientTransform="matrix(1 0 0 1 0 -950.467)" gradientUnits="userSpaceOnUse">
	<stop  offset="0" style="stop-color:#FFFFFF;stop-opacity:0.1"/>
	<stop  offset="1" style="stop-color:#FFFFFF;stop-opacity:0"/>
</radialGradient>
<path class="st21" d="M295.6,102.6l-9.1-9.1l-7.7-7.7c-0.6-0.7-2.1-1.5-3.2-1.5c-1,0-2,0.2-2.6,0.6L258.8,92l-7.1,14.7
	c-0.3,0.5-0.6,1.4-0.6,2.1c0,1.3,0.6,2.6,1.5,3.5l7,7c0.2,0.2,0.4,0.4,0.6,0.6l0.3,0.3l0.9,0.9l7.7,7.7l0.3,0.3H288v-8h7.9v-18.3
	L295.6,102.6z"/>
</svg>
